<?xml version="1.0" standalone="no"?>
<!DOCTYPE svg PUBLIC "-//W3C//DTD SVG 20010904//EN"
 "http://www.w3.org/TR/2001/REC-SVG-20010904/DTD/svg10.dtd">
<svg version="1.0" xmlns="http://www.w3.org/2000/svg"
 width="100.000000pt" height="100.000000pt" viewBox="0 0 100.000000 100.000000"
 preserveAspectRatio="xMidYMid meet">

<g transform="translate(0.000000,100.000000) scale(0.100000,-0.100000)"
fill="#000000" stroke="none">
<path d="M390 984 c-30 -7 -73 -19 -94 -28 -49 -21 -136 -84 -136 -100 0 -18
-24 -66 -32 -66 -5 0 -8 6 -8 13 -1 14 -50 -39 -50 -54 0 -6 13 -1 29 10 15
11 31 18 35 14 3 -3 6 -38 6 -76 0 -57 -3 -68 -15 -63 -10 4 -20 -6 -30 -31
-17 -40 -30 -53 -57 -53 -25 0 -23 26 2 33 28 7 25 27 -4 27 -21 0 -24 -5 -29
-70 -6 -72 4 -163 21 -197 5 -10 20 -41 32 -69 12 -28 33 -64 46 -80 l23 -29
1 146 c0 115 3 148 14 152 17 7 36 -32 46 -91 8 -47 -6 -53 -27 -13 -9 20 -12
12 -18 -60 -11 -136 -8 -147 55 -195 197 -151 499 -124 666 59 80 88 133 224
134 344 0 46 -4 49 -75 55 -21 2 -31 9 -33 23 -6 32 -22 45 -57 45 -25 0 -34
-5 -38 -22 -4 -13 0 -26 10 -33 14 -11 14 -12 -1 -18 -9 -4 -23 -1 -30 5 -10
10 -10 17 1 38 7 14 13 39 13 55 1 53 17 104 44 136 26 30 26 31 9 60 -13 21
-25 29 -46 29 -18 0 -39 11 -59 30 -29 30 -58 39 -58 20 0 -5 5 -10 11 -10 5
0 8 -4 4 -9 -3 -5 -1 -12 5 -16 18 -11 11 -35 -11 -35 -14 0 -19 5 -16 15 4 8
2 17 -2 20 -5 3 -7 14 -4 25 3 11 1 20 -4 20 -6 0 -23 12 -38 26 -25 23 -37
26 -104 28 -41 0 -100 -4 -131 -10z m267 -226 c42 -46 79 -143 68 -177 -5 -16
-11 -17 -48 -8 -29 6 -60 6 -99 -2 -61 -13 -82 -29 -72 -55 5 -14 8 -14 27 -1
23 16 182 22 203 7 37 -24 -21 -300 -71 -342 -10 -8 -14 -5 -19 13 -5 21 -10
23 -53 21 -26 -2 -53 2 -61 8 -9 8 -16 8 -24 0 -14 -14 -28 -16 -28 -3 0 5 14
14 30 21 32 13 50 37 50 64 0 21 -29 20 -51 0 -17 -15 -20 -15 -43 0 -22 14
-56 13 -56 -1 0 -3 10 -21 21 -40 23 -37 16 -53 -24 -53 -23 0 -60 -19 -70
-36 -18 -30 -31 -18 -90 77 -19 31 -52 220 -40 228 4 3 13 15 19 26 10 18 23
20 109 23 59 2 102 -1 110 -8 22 -18 26 6 4 26 -26 24 -148 29 -198 8 -43 -18
-54 -8 -38 36 18 52 23 57 64 64 21 4 72 23 113 43 41 20 84 40 95 44 11 3 36
13 55 22 51 23 93 21 117 -5z m-493 -214 c4 -9 5 -19 3 -21 -8 -8 -37 10 -37
23 0 19 26 18 34 -2z m-109 -51 c-7 -42 -12 -50 -21 -40 -10 10 6 77 18 77 6
0 8 -13 3 -37z m731 -108 c-3 -13 -12 -25 -19 -28 -16 -6 -12 56 6 92 12 24
12 24 15 -9 2 -18 1 -43 -2 -55z m-274 -194 c10 6 31 4 55 -4 34 -11 38 -16
35 -42 -2 -22 0 -26 7 -15 8 12 11 12 17 -4 6 -14 -2 -28 -30 -54 -37 -33 -53
-36 -97 -18 -10 4 -23 0 -33 -10 -15 -14 -23 -15 -55 -6 -46 14 -90 57 -74 73
6 6 9 17 7 24 -11 27 81 68 126 55 15 -4 34 -4 42 1z"/>
<path d="M270 510 c-19 -4 -30 -8 -23 -9 7 0 10 -8 7 -16 -4 -10 0 -15 14 -15
11 0 23 -6 25 -12 4 -10 8 -10 16 2 5 8 7 18 4 23 -3 5 4 3 15 -4 17 -10 23
-10 37 1 14 11 16 11 13 -1 -2 -8 -7 -17 -13 -21 -15 -11 47 -9 65 2 9 6 17 5
22 -3 5 -8 8 -6 8 6 0 11 -9 21 -20 24 -23 6 -26 19 -7 26 19 8 -124 5 -163
-3z"/>
<path d="M554 505 c3 -10 -1 -15 -13 -15 -10 0 -21 -9 -24 -21 -4 -16 -3 -18
8 -9 9 8 15 8 20 0 7 -12 42 -14 47 -2 5 13 58 24 58 12 0 -17 29 -11 50 10
34 34 24 40 -66 40 -72 0 -85 -2 -80 -15z"/>
<path d="M487 161 c-43 -7 -50 -24 -11 -29 37 -5 71 5 78 23 6 16 -1 17 -67 6z"/>
<path d="M819 683 c-13 -15 -12 -15 9 -4 23 12 28 21 13 21 -5 0 -15 -7 -22
-17z"/>
</g>
</svg>
